<?xml version="1.0" encoding="iso-8859-1"?>
<!-- Generator: Adobe Illustrator 19.0.0, SVG Export Plug-In . SVG Version: 6.00 Build 0)  -->
<svg version="1.1" id="Capa_1" xmlns="http://www.w3.org/2000/svg" xmlns:xlink="http://www.w3.org/1999/xlink" x="0px" y="0px"
	 viewBox="0 0 512.004 512.004" style="enable-background:new 0 0 512.004 512.004;" xml:space="preserve">
<g>
	<g>
		<g>
			<path d="M198.713,300.142c-6.621,0-12.447,0.265-17.92,0.794h-0.088c-0.258,0.073-0.527,0.103-0.794,0.088
				c-0.265,0-0.618,0.088-0.883,0.088h-0.088c-74.505,6.974-130.295,51.995-130.295,104.96c0,58.439,67.354,105.931,150.069,105.931
				c59.41,0,113.17-24.806,137.357-63.382l0.265-0.53c8.072-12.533,12.391-27.112,12.447-42.019
				C348.782,347.634,281.427,300.142,198.713,300.142z M110.437,459.038c-24.364,0-44.138-23.746-44.138-52.966
				s19.774-52.966,44.138-52.966s44.138,23.746,44.138,52.966S134.801,459.038,110.437,459.038z M277.367,344.986
				c-1.426,3.16-4.566,5.196-8.033,5.208c-1.277-0.008-2.539-0.279-3.708-0.794c-21.043-9.402-43.866-14.16-66.913-13.948
				c-4.875,0-8.828-3.952-8.828-8.828c0-4.875,3.952-8.828,8.828-8.828c25.599-0.161,50.938,5.136,74.328,15.537
				c2.12,0.97,3.767,2.744,4.579,4.929C278.431,340.448,278.34,342.867,277.367,344.986z M319.298,387.27
				c-1.311,0.768-2.806,1.165-4.326,1.148c-3.169,0.023-6.104-1.664-7.68-4.414c-1.561-2.723-3.332-5.32-5.297-7.768
				c-3.023-3.827-2.371-9.38,1.457-12.403s9.38-2.371,12.403,1.457c2.514,3.118,4.786,6.423,6.797,9.887
				C325.048,379.444,323.55,384.846,319.298,387.27z"/>
			<path d="M403.513,227.755c-64-63.912-153.777-78.742-202.77-34.339c-0.003,0.003-0.006,0.006-0.009,0.008l-52.033-40.465
				l14.3-14.3c0.454-0.461,0.842-0.961,1.173-1.486c0.007,0.004,0.014,0.008,0.022,0.012c5.537,2.65,11.604,4.008,17.743,3.972
				c14.212,0,33.368-6.885,57.379-30.279c23.876-26.283,40.302-58.465,47.581-93.219c0.431-4.751-1.285-9.447-4.679-12.8
				c-3.058-3.088-7.218-4.835-11.564-4.855c-0.502-0.015-1.004,0.015-1.501,0.088c-19.685,1.677-56.497,8.386-82.45,33.721
				c-25.247,24.629-40.96,53.142-40.96,74.328c-0.17,6.304,1.551,12.515,4.943,17.832c0.007,0.011,0.015,0.021,0.021,0.031
				c-0.063,0.059-0.131,0.111-0.193,0.172l-15.861,15.861l-9.976-7.758c-2.488-1.948-5.827-2.418-8.755-1.231
				c-2.928,1.187-4.999,3.848-5.428,6.979s0.847,6.251,3.348,8.183l74.961,58.297c-15.968,22.576-22.921,50.305-19.491,77.745v0.265
				c2.913-0.441,5.826-0.794,8.828-1.059c2.737-0.265,5.738-0.53,8.828-0.618c3.619-0.265,7.592-0.353,11.741-0.353
				c92.513,0,167.724,55.437,167.724,123.586c0.006,13.406-2.885,26.656-8.474,38.841c-1.891,4.338-4.104,8.528-6.621,12.535
				c-0.971,1.589-1.942,3.09-3.001,4.59c3.87,0.421,7.76,0.628,11.652,0.618c27.784,0.782,54.719-9.617,74.77-28.866
				C482.873,385.504,468.837,293.168,403.513,227.755z M166.492,117.499c-1.692-1.814-2.719-4.148-2.913-6.621l20.039-20.039
				c3.466-3.437,9.058-3.426,12.51,0.026s3.463,9.044,0.026,12.51l-19.597,19.597C172.758,122.118,169.273,120.222,166.492,117.499z
				 M414.282,388.064c-4.674-1.373-7.358-6.267-6.003-10.946c1.455-5.056,2.256-10.277,2.383-15.537
				c0.189-4.861,4.273-8.654,9.135-8.484c4.862,0.17,8.671,4.24,8.52,9.102c-0.182,6.725-1.221,13.399-3.09,19.862
				c-1.057,3.795-4.535,6.403-8.474,6.356C415.917,388.424,415.084,388.305,414.282,388.064z M365.996,265.273
				c-3.461-3.461-3.461-9.074,0-12.535c3.461-3.461,9.074-3.461,12.535,0c20.185,19.901,35.345,44.32,44.226,71.239
				c0.695,2.236,0.472,4.657-0.621,6.727c-1.093,2.071-2.966,3.621-5.205,4.307c-0.857,0.275-1.749,0.424-2.648,0.441
				c-3.864-0.033-7.26-2.571-8.386-6.268C397.887,305.001,384.206,283.087,365.996,265.273z"/>
			<path d="M110.437,370.762c-14.566,0-26.483,15.801-26.483,35.31s11.917,35.31,26.483,35.31c14.654,0,26.483-15.801,26.483-35.31
				S125.091,370.762,110.437,370.762z"/>
		</g>
	</g>
</g>
<g>
</g>
<g>
</g>
<g>
</g>
<g>
</g>
<g>
</g>
<g>
</g>
<g>
</g>
<g>
</g>
<g>
</g>
<g>
</g>
<g>
</g>
<g>
</g>
<g>
</g>
<g>
</g>
<g>
</g>
</svg>
