<svg height="480pt" viewBox="0 -40 480 480" width="480pt" xmlns="http://www.w3.org/2000/svg"><path d="m440 304c0 48.601562-39.398438 88-88 88s-88-39.398438-88-88 39.398438-88 88-88 88 39.398438 88 88zm0 0" fill="#d55b55"/><path d="m184 96c0 48.601562-39.398438 88-88 88s-88-39.398438-88-88 39.398438-88 88-88 88 39.398438 88 88zm0 0" fill="#f5846f"/><path d="m328 304c0 48.601562-39.398438 88-88 88s-88-39.398438-88-88 39.398438-88 88-88 88 39.398438 88 88zm0 0" fill="#f5846f"/><path d="m216 304c0 48.601562-39.398438 88-88 88s-88-39.398438-88-88 39.398438-88 88-88 88 39.398438 88 88zm0 0" fill="#d55b55"/><g fill="#f7996a"><path d="m120 240h16v16h-16zm0 0"/><path d="m168 280h16v16h-16zm0 0"/><path d="m152 312h16v16h-16zm0 0"/><path d="m104 312h16v16h-16zm0 0"/><path d="m80 280h16v16h-16zm0 0"/><path d="m112 352h16v16h-16zm0 0"/><path d="m232 240h16v16h-16zm0 0"/><path d="m280 280h16v16h-16zm0 0"/><path d="m264 312h16v16h-16zm0 0"/><path d="m216 312h16v16h-16zm0 0"/><path d="m224 352h16v16h-16zm0 0"/><path d="m352 240h16v16h-16zm0 0"/><path d="m400 280h16v16h-16zm0 0"/><path d="m384 312h16v16h-16zm0 0"/><path d="m352 288h16v16h-16zm0 0"/><path d="m344 352h16v16h-16zm0 0"/></g><path d="m480 184h-384c48.601562 0 88-39.398438 88-88s-39.398438-88-88-88h384" fill="#d55b55"/><path d="m88 32h16v16h-16zm0 0" fill="#f7996a"/><path d="m136 64h16v16h-16zm0 0" fill="#f7996a"/><path d="m120 96h16v16h-16zm0 0" fill="#f7996a"/><path d="m88 128h16v16h-16zm0 0" fill="#f7996a"/><path d="m40 88h16v16h-16zm0 0" fill="#f7996a"/><path d="m72 72h16v16h-16zm0 0" fill="#f7996a"/><path d="m0 96c.0585938 52.996094 43.003906 95.941406 96 96h384v-16h-330.984375c.097656-.0625.175781-.136719.265625-.199219 2.929688-1.980469 5.75-4.117187 8.445312-6.402343.738282-.621094 1.425782-1.300782 2.152344-1.949219 1.929688-1.730469 3.800782-3.511719 5.601563-5.394531.800781-.878907 1.597656-1.773438 2.398437-2.6875 1.601563-1.839844 3.199219-3.75 4.65625-5.71875.6875-.90625 1.394532-1.800782 2.050782-2.726563 1.804687-2.589844 3.488281-5.253906 5.046874-8 .191407-.355469.429688-.675781.613282-1.027344 1.707031-3.136719 3.230468-6.367187 4.570312-9.679687.398438-.96875.71875-1.957032 1.078125-2.941406.90625-2.402344 1.722657-4.890626 2.402344-7.402344.34375-1.199219.648437-2.398438.933594-3.625.601562-2.492188 1.082031-5.03125 1.472656-7.597656.175781-1.136719.386719-2.265626.519531-3.417969.960938-7.460938.960938-15.015625 0-22.476563-.132812-1.152344-.34375-2.28125-.519531-3.417968-.390625-2.566407-.871094-5.105469-1.472656-7.601563-.285157-1.222656-.589844-2.398437-.933594-3.621094-.703125-2.511719-1.519531-4.96875-2.402344-7.394531-.367187-.984375-.6875-1.992188-1.085937-2.957031-1.339844-3.308594-2.867188-6.539063-4.570313-9.671875-.183593-.355469-.421875-.675782-.613281-1.027344-1.554688-2.753906-3.234375-5.421875-5.050781-8-.652344-.925781-1.359375-1.824219-2.046875-2.726562-1.488282-1.96875-3.03125-3.878907-4.65625-5.71875-.800782-.914063-1.597656-1.808594-2.398438-2.6875-1.792968-1.875-3.65625-3.65625-5.601562-5.386719-.726563-.648438-1.414063-1.335938-2.167969-1.96875-2.691406-2.285157-5.511719-4.421875-8.4375-6.398438-.089844-.0625-.167969-.136719-.265625-.199219h331v-15.976562h-384c-52.996094.0585938-95.9414062 43.003906-96 96zm176 0c0 44.183594-35.816406 80-80 80s-80-35.816406-80-80 35.816406-80 80-80c44.164062.046875 79.953125 35.835938 80 80zm0 0"/><path d="m352 208c-20.125.03125-39.730469 6.378906-56.054688 18.144531-33.414062-24.195312-78.585937-24.195312-112 0-39.78125-28.699219-94.800781-22.789062-127.578124 13.699219-32.78125 36.488281-32.78125 91.824219 0 128.3125 32.777343 36.488281 87.796874 42.398438 127.578124 13.699219 33.414063 24.195312 78.585938 24.195312 112 0 33.707032 24.316406 79.234376 24.179687 112.792969-.339844 33.5625-24.515625 47.535157-67.847656 34.617188-107.351563-12.917969-39.507812-49.792969-66.210937-91.355469-66.164062zm-304 96c0-44.183594 35.816406-80 80-80s80 35.816406 80 80-35.816406 80-80 80c-44.164062-.046875-79.953125-35.835938-80-80zm148.542969 67.097656c11.726562-11.996094 20.105469-26.855468 24.296875-43.097656h11.160156v-16h-8.40625c.222656-2.648438.40625-5.296875.40625-8 .003906-25.101562-9.855469-49.199219-27.457031-67.097656 33.449219-21.714844 77.78125-15.484375 103.945312 14.613281 26.164063 30.097656 26.164063 74.871094 0 104.96875-26.164062 30.097656-70.496093 36.328125-103.945312 14.613281zm155.457031 12.902344c-15.425781-.027344-30.515625-4.507812-43.457031-12.902344 36.609375-37.242187 36.609375-96.953125 0-134.195312 28.648437-18.601563 65.945312-16.960938 92.851562 4.082031s37.484375 56.847656 26.332031 89.132813c-11.148437 32.285156-41.570312 53.929687-75.726562 53.882812zm0 0"/><path d="m120 240h16v16h-16zm0 0"/><path d="m168 280h16v16h-16zm0 0"/><path d="m152 312h16v16h-16zm0 0"/><path d="m104 312h16v16h-16zm0 0"/><path d="m80 280h16v16h-16zm0 0"/><path d="m112 352h16v16h-16zm0 0"/><path d="m232 240h16v16h-16zm0 0"/><path d="m280 280h16v16h-16zm0 0"/><path d="m264 312h16v16h-16zm0 0"/><path d="m224 352h16v16h-16zm0 0"/><path d="m352 240h16v16h-16zm0 0"/><path d="m400 280h16v16h-16zm0 0"/><path d="m384 312h16v16h-16zm0 0"/><path d="m352 288h16v16h-16zm0 0"/><path d="m344 352h16v16h-16zm0 0"/><path d="m88 32h16v16h-16zm0 0"/><path d="m136 64h16v16h-16zm0 0"/><path d="m120 96h16v16h-16zm0 0"/><path d="m88 128h16v16h-16zm0 0"/><path d="m40 88h16v16h-16zm0 0"/><path d="m72 72h16v16h-16zm0 0"/></svg>